<?xml version="1.0" encoding="utf-8"?>
<!-- Generator: Adobe Illustrator 24.0.2, SVG Export Plug-In . SVG Version: 6.00 Build 0)  -->
<svg version="1.1" id="Layer_1" xmlns="http://www.w3.org/2000/svg" xmlns:xlink="http://www.w3.org/1999/xlink" x="0px" y="0px"
	 viewBox="0 0 141.73 56.69" style="enable-background:new 0 0 141.73 56.69;" xml:space="preserve">
<style type="text/css">
	.st0{fill:none;stroke:#000000;stroke-width:2;stroke-miterlimit:10;}
</style>
<g>
	<path d="M23.64,13.67h3.97c2.65,0,4.44,0.1,5.38,0.29s1.7,0.68,2.29,1.47c0.59,0.79,0.89,2.05,0.89,3.78
		c0,1.58-0.21,2.64-0.63,3.19c-0.42,0.54-1.24,0.87-2.47,0.98c1.11,0.26,1.86,0.61,2.24,1.04c0.38,0.44,0.62,0.83,0.71,1.2
		s0.14,1.37,0.14,3.01v5.36h-5.21v-6.75c0-1.09-0.09-1.76-0.27-2.02s-0.66-0.39-1.43-0.39v9.16h-5.61V13.67z M29.25,17.15v4.52
		c0.63,0,1.07-0.08,1.33-0.24s0.38-0.69,0.38-1.59v-1.12c0-0.64-0.12-1.07-0.37-1.27C30.34,17.25,29.9,17.15,29.25,17.15z"/>
	<path d="M55.04,19.82h-5.21v-1.51c0-0.7-0.07-1.15-0.2-1.34s-0.36-0.29-0.67-0.29c-0.34,0-0.59,0.13-0.77,0.39
		c-0.17,0.26-0.26,0.65-0.26,1.18c0,0.68,0.1,1.19,0.29,1.53c0.19,0.34,0.71,0.76,1.59,1.24c2.5,1.4,4.07,2.54,4.72,3.44
		c0.65,0.9,0.97,2.34,0.97,4.33c0,1.45-0.18,2.51-0.54,3.2c-0.36,0.69-1.06,1.26-2.09,1.73c-1.03,0.46-2.23,0.7-3.6,0.7
		c-1.5,0-2.78-0.27-3.85-0.8c-1.06-0.54-1.76-1.22-2.09-2.04c-0.33-0.83-0.49-2-0.49-3.53v-1.33h5.21v2.47
		c0,0.76,0.07,1.25,0.22,1.47c0.15,0.22,0.41,0.33,0.78,0.33c0.37,0,0.65-0.14,0.83-0.41c0.18-0.28,0.27-0.69,0.27-1.23
		c0-1.2-0.17-1.98-0.52-2.35c-0.36-0.37-1.23-0.98-2.63-1.84c-1.4-0.87-2.32-1.5-2.77-1.9s-0.83-0.94-1.13-1.63
		s-0.45-1.58-0.45-2.66c0-1.56,0.21-2.69,0.63-3.41c0.42-0.72,1.1-1.28,2.05-1.69c0.94-0.41,2.08-0.61,3.41-0.61
		c1.46,0,2.7,0.22,3.73,0.67s1.71,1,2.04,1.68c0.33,0.67,0.5,1.82,0.5,3.43V19.82z"/>
	<path d="M69.22,13.67l-4.09,12.96v7.35h-5.2v-7.35l-3.95-12.96h5.16c0.81,3.97,1.26,6.63,1.36,8.01c0.31-2.17,0.83-4.84,1.56-8.01
		H69.22z"/>
	<path d="M82.07,19.82h-5.21v-1.51c0-0.7-0.07-1.15-0.2-1.34c-0.13-0.19-0.36-0.29-0.67-0.29c-0.34,0-0.59,0.13-0.77,0.39
		c-0.17,0.26-0.26,0.65-0.26,1.18c0,0.68,0.1,1.19,0.29,1.53c0.19,0.34,0.71,0.76,1.59,1.24c2.5,1.4,4.07,2.54,4.72,3.44
		c0.65,0.9,0.97,2.34,0.97,4.33c0,1.45-0.18,2.51-0.54,3.2c-0.36,0.69-1.05,1.26-2.09,1.73c-1.03,0.46-2.23,0.7-3.6,0.7
		c-1.5,0-2.78-0.27-3.85-0.8c-1.06-0.54-1.76-1.22-2.09-2.04c-0.33-0.83-0.49-2-0.49-3.53v-1.33h5.21v2.47
		c0,0.76,0.07,1.25,0.22,1.47s0.41,0.33,0.78,0.33s0.65-0.14,0.83-0.41c0.18-0.28,0.27-0.69,0.27-1.23c0-1.2-0.17-1.98-0.52-2.35
		c-0.36-0.37-1.23-0.98-2.63-1.84c-1.4-0.87-2.32-1.5-2.77-1.9s-0.83-0.94-1.13-1.63s-0.45-1.58-0.45-2.66
		c0-1.56,0.21-2.69,0.63-3.41c0.42-0.72,1.1-1.28,2.05-1.69c0.94-0.41,2.08-0.61,3.41-0.61c1.46,0,2.7,0.22,3.72,0.67
		c1.03,0.44,1.71,1,2.04,1.68c0.33,0.67,0.5,1.82,0.5,3.43V19.82z"/>
	<path d="M95.61,13.67v4.07h-3.33v16.25h-5.61V17.74h-3.32v-4.07H95.61z"/>
	<path d="M96.88,13.67h9.36v4.07h-3.75v3.85H106v3.87h-3.51v4.47h4.12v4.07h-9.73V13.67z"/>
	<path d="M125.54,13.67v20.32h-4.91l-0.01-13.72l-1.95,13.72h-3.48l-2.06-13.4l-0.01,13.4h-4.91V13.67h7.26
		c0.22,1.22,0.44,2.66,0.67,4.32l0.8,5.17l1.29-9.49H125.54z"/>
</g>
<rect x="8.45" y="21.58" width="3.9" height="3.9"/>
<path d="M4.88,25.48L4.88,25.48c-1.08,0-1.95-0.87-1.95-1.95v0c0-1.08,0.87-1.95,1.95-1.95h0c1.08,0,1.95,0.87,1.95,1.95v0
	C6.83,24.61,5.95,25.48,4.88,25.48z"/>
<path d="M15.95,25.48L15.95,25.48c-1.08,0-1.95-0.87-1.95-1.95v0c0-1.08,0.87-1.95,1.95-1.95h0c1.08,0,1.95,0.87,1.95,1.95v0
	C17.9,24.61,17.03,25.48,15.95,25.48z"/>
<rect x="14" y="13.34" width="3.9" height="3.9"/>
<rect x="2.86" y="13.34" width="3.9" height="3.9"/>
<rect x="2.86" y="29.82" width="3.9" height="3.9"/>
<rect x="14" y="29.82" width="3.9" height="3.9"/>
<path class="st0" d="M2.88,48.56c41.86-9.07,69.43-5.35,87.13,0c6.3,1.9,18.37,6.14,28.97,0c11.65-6.74,15.93-22.78,17.74-35.22"/>
</svg>
